{
  "accessors": [
    {
      "bufferView": 0,
      "byteOffset": 0,
      "componentType": 5125,
      "count": 2454,
      "max": [
        469
      ],
      "min": [
        0
      ],
      "type": "SCALAR"
    },
    {
      "bufferView": 1,
      "byteOffset": 0,
      "componentType": 5126,
      "count": 470,
      "max": [
        0.99841058254241943,
        0.99925124645233154,
        0.99990767240524292
      ],
      "min": [
        -0.99863022565841675,
        -0.99225080013275146,
        -0.99180483818054199
      ],
      "type": "VEC3"
    },
    {
      "bufferView": 2,
      "byteOffset": 0,
      "componentType": 5126,
      "count": 470,
      "max": [
        -0.14859268069267273,
        21.930093765258789,
        -0.40891140699386597
      ],
      "min": [
        -1.4806200265884399,
        19.821477890014648,
        -1.6217080354690552
      ],
      "type": "VEC3"
    },
    {
      "bufferView": 3,
      "byteOffset": 0,
      "componentType": 5126,
      "count": 470,
      "max": [
        0.4062923789024353,
        0.47450590133666992
      ],
      "min": [
        0.25253647565841675,
        0.27810317277908325
      ],
      "type": "VEC2"
    },
    {
      "bufferView": 4,
      "byteOffset": 0,
      "componentType": 5125,
      "count": 4032,
      "max": [
        725
      ],
      "min": [
        0
      ],
      "type": "SCALAR"
    },
    {
      "bufferView": 5,
      "byteOffset": 0,
      "componentType": 5126,
      "count": 726,
      "max": [
        0.99993252754211426,
        0.98779469728469849,
        0.99999845027923584
      ],
      "min": [
        -0.99999845027923584,
        -0.89527958631515503,
        -0.99993258714675903
      ],
      "type": "VEC3"
    },
    {
      "bufferView": 6,
      "byteOffset": 0,
      "componentType": 5126,
      "count": 726,
      "max": [
        4.3569698333740234,
        10.034518241882324,
        4.356968879699707
      ],
      "min": [
        -4.3569698333740234,
        -0.03820037841796875,
        -4.356968879699707
      ],
      "type": "VEC3"
    },
    {
      "bufferView": 7,
      "byteOffset": 0,
      "componentType": 5126,
      "count": 726,
      "max": [
        0.75833392143249512,
        0.99273133277893066
      ],
      "min": [
        0.0083270668983459473,
        0.68582051992416382
      ],
      "type": "VEC2"
    },
    {
      "bufferView": 8,
      "byteOffset": 0,
      "componentType": 5125,
      "count": 71112,
      "max": [
        12650
      ],
      "min": [
        0
      ],
      "type": "SCALAR"
    },
    {
      "bufferView": 9,
      "byteOffset": 0,
      "componentType": 5126,
      "count": 12651,
      "max": [
        0.9996219277381897,
        0.99893862009048462,
        0.99997532367706299
      ],
      "min": [
        -0.99997013807296753,
        -0.99969404935836792,
        -0.99978023767471313
      ],
      "type": "VEC3"
    },
    {
      "bufferView": 10,
      "byteOffset": 0,
      "componentType": 5126,
      "count": 12651,
      "max": [
        0.98430341482162476,
        16.665102005004883,
        3.7890169620513916
      ],
      "min": [
        -2.388031005859375,
        13.804853439331055,
        0.10191667824983597
      ],
      "type": "VEC3"
    },
    {
      "bufferView": 11,
      "byteOffset": 0,
      "componentType": 5126,
      "count": 12651,
      "max": [
        0.99977648258209229,
        0.19961541891098022
      ],
      "min": [
        0,
        0
      ],
      "type": "VEC2"
    },
    {
      "bufferView": 12,
      "byteOffset": 0,
      "componentType": 5125,
      "count": 258150,
      "max": [
        52941
      ],
      "min": [
        0
      ],
      "type": "SCALAR"
    },
    {
      "bufferView": 13,
      "byteOffset": 0,
      "componentType": 5126,
      "count": 52942,
      "max": [
        0.99993455410003662,
        0.99996477365493774,
        0.999969482421875
      ],
      "min": [
        -0.99997997283935547,
        -0.99996727705001831,
        -0.99998873472213745
      ],
      "type": "VEC3"
    },
    {
      "bufferView": 14,
      "byteOffset": 0,
      "componentType": 5126,
      "count": 52942,
      "max": [
        4.1357975006103516,
        21.026514053344727,
        2.0907390117645264
      ],
      "min": [
        -3.1047053337097168,
        15.586856842041016,
        -4.7200193405151367
      ],
      "type": "VEC3"
    },
    {
      "bufferView": 15,
      "byteOffset": 0,
      "componentType": 5126,
      "count": 52942,
      "max": [
        0.9973788857460022,
        0.99194043874740601
      ],
      "min": [
        0.039235759526491165,
        0.0069938302040100098
      ],
      "type": "VEC2"
    },
    {
      "bufferView": 16,
      "byteOffset": 0,
      "componentType": 5125,
      "count": 17868,
      "max": [
        3350
      ],
      "min": [
        0
      ],
      "type": "SCALAR"
    },
    {
      "bufferView": 17,
      "byteOffset": 0,
      "componentType": 5126,
      "count": 3351,
      "max": [
        0.99926704168319702,
        0.99680197238922119,
        0.99920302629470825
      ],
      "min": [
        -0.99943333864212036,
        -0.99869710206985474,
        -0.99906075000762939
      ],
      "type": "VEC3"
    },
    {
      "bufferView": 18,
      "byteOffset": 0,
      "componentType": 5126,
      "count": 3351,
      "max": [
        5.1772775650024414,
        17.414682388305664,
        4.8463568687438965
      ],
      "min": [
        -4.6622557640075684,
        9.6912136077880859,
        -5.0195221900939941
      ],
      "type": "VEC3"
    },
    {
      "bufferView": 19,
      "byteOffset": 0,
      "componentType": 5126,
      "count": 3351,
      "max": [
        0.99560379981994629,
        0.49424195289611816
      ],
      "min": [
        0.031163208186626434,
        0.028517544269561768
      ],
      "type": "VEC2"
    }
  ],
  "asset": {
    "generator": "glTF-Maya-Exporter ver1.5.4",
    "version": "2.0"
  },
  "bufferViews": [
    {
      "buffer": 0,
      "byteLength": 9816,
      "byteOffset": 0,
      "target": 34963
    },
    {
      "buffer": 0,
      "byteLength": 5640,
      "byteOffset": 9816,
      "target": 34962
    },
    {
      "buffer": 0,
      "byteLength": 5640,
      "byteOffset": 15456,
      "target": 34962
    },
    {
      "buffer": 0,
      "byteLength": 3760,
      "byteOffset": 21096,
      "target": 34962
    },
    {
      "buffer": 0,
      "byteLength": 16128,
      "byteOffset": 24856,
      "target": 34963
    },
    {
      "buffer": 0,
      "byteLength": 8712,
      "byteOffset": 40984,
      "target": 34962
    },
    {
      "buffer": 0,
      "byteLength": 8712,
      "byteOffset": 49696,
      "target": 34962
    },
    {
      "buffer": 0,
      "byteLength": 5808,
      "byteOffset": 58408,
      "target": 34962
    },
    {
      "buffer": 0,
      "byteLength": 284448,
      "byteOffset": 64216,
      "target": 34963
    },
    {
      "buffer": 0,
      "byteLength": 151812,
      "byteOffset": 348664,
      "target": 34962
    },
    {
      "buffer": 0,
      "byteLength": 151812,
      "byteOffset": 500476,
      "target": 34962
    },
    {
      "buffer": 0,
      "byteLength": 101208,
      "byteOffset": 652288,
      "target": 34962
    },
    {
      "buffer": 0,
      "byteLength": 1032600,
      "byteOffset": 753496,
      "target": 34963
    },
    {
      "buffer": 0,
      "byteLength": 635304,
      "byteOffset": 1786096,
      "target": 34962
    },
    {
      "buffer": 0,
      "byteLength": 635304,
      "byteOffset": 2421400,
      "target": 34962
    },
    {
      "buffer": 0,
      "byteLength": 423536,
      "byteOffset": 3056704,
      "target": 34962
    },
    {
      "buffer": 0,
      "byteLength": 71472,
      "byteOffset": 3480240,
      "target": 34963
    },
    {
      "buffer": 0,
      "byteLength": 40212,
      "byteOffset": 3551712,
      "target": 34962
    },
    {
      "buffer": 0,
      "byteLength": 40212,
      "byteOffset": 3591924,
      "target": 34962
    },
    {
      "buffer": 0,
      "byteLength": 26808,
      "byteOffset": 3632136,
      "target": 34962
    }
  ],
  "buffers": [
    {
      "byteLength": 3658944,
      "uri": "mountain.bin"
    }
  ],
  "extensionsUsed": [
    "LTE_UDIM_texture",
    "LTE_PBR_material"
  ],
  "images": [
    {
      "name": "mountain_BaseColor",
      "uri": ".\/mountain_BaseColor.jpg"
    },
    {
      "name": "Mountain_Emissive",
      "uri": ".\/Mountain_Emissive.jpg"
    },
    {
      "name": "mountain_Normal",
      "uri": ".\/mountain_Normal.jpg"
    },
    {
      "name": "mountain_Metallic",
      "uri": ".\/mountain_Metallic.jpg"
    },
    {
      "name": "mountain_Roughness",
      "uri": ".\/mountain_Roughness.jpg"
    }
  ],
  "materials": [
    {
      "alphaMode": "OPAQUE",
      "emissiveFactor": [
        0,
        0,
        0
      ],
      "emissiveTexture": {
        "index": 1
      },
      "extensions": {
        "LTE_PBR_material": {
          "baseColor": [
            0,
            0,
            0
          ],
          "baseColorTexture": {
            "index": 3
          },
          "baseWeight": 0.80000001192092896,
          "coatColor": [
            1,
            1,
            1
          ],
          "coatIOR": 1.5,
          "coatNormal": [
            0,
            0,
            0
          ],
          "coatRoughness": 0.10000000149011612,
          "coatWeight": 0,
          "diffuseRoughness": 0,
          "emissionColor": [
            0,
            0,
            0
          ],
          "emissionColorTexture": {
            "index": 4
          },
          "emissionWeight": 0,
          "metalness": 1,
          "metalnessTexture": {
            "index": 5
          },
          "specularAnisotropy": 0,
          "specularColor": [
            1,
            1,
            1
          ],
          "specularIOR": 1.5199999809265137,
          "specularRotation": 0,
          "specularRoughness": 1,
          "specularRoughnessTexture": {
            "index": 6
          },
          "specularWeight": 1,
          "subsurfaceAnisotropy": 0,
          "subsurfaceColor": [
            1,
            1,
            1
          ],
          "subsurfaceRadius": [
            1,
            1,
            1
          ],
          "subsurfaceScale": 1,
          "subsurfaceType": "diffusion",
          "subsurfaceWeight": 0,
          "transmissionAovs": 0,
          "transmissionColor": [
            1,
            1,
            1
          ],
          "transmissionDepth": 0,
          "transmissionDispersion": 0,
          "transmissionExtraRoughness": 0,
          "transmissionScatter": [
            0,
            0,
            0
          ],
          "transmissionScatterAnisotropy": 0,
          "transmissionWeight": 0
        }
      },
      "name": "aiStandardSurface2",
      "normalTexture": {
        "index": 2
      },
      "pbrMetallicRoughness": {
        "baseColorFactor": [
          0.80000001192092896,
          0.80000001192092896,
          0.80000001192092896,
          1
        ],
        "baseColorTexture": {
          "index": 0
        },
        "metallicFactor": 1,
        "roughnessFactor": 1
      }
    },
    {
      "alphaMode": "BLEND",
      "emissiveFactor": [
        0,
        0,
        0
      ],
      "extensions": {
        "LTE_PBR_material": {
          "baseColor": [
            0,
            0,
            0
          ],
          "baseWeight": 0,
          "coatColor": [
            0,
            0,
            0
          ],
          "coatIOR": 0,
          "coatNormal": [
            0,
            0,
            0
          ],
          "coatRoughness": 0,
          "coatWeight": 0,
          "diffuseRoughness": 0,
          "emissionColor": [
            0,
            0,
            0
          ],
          "emissionWeight": 0,
          "metalness": 0,
          "specularAnisotropy": 0,
          "specularColor": [
            0,
            0,
            0
          ],
          "specularIOR": 0,
          "specularRotation": 0,
          "specularRoughness": 0,
          "specularWeight": 0,
          "subsurfaceAnisotropy": 0,
          "subsurfaceColor": [
            0,
            0,
            0
          ],
          "subsurfaceRadius": [
            0,
            0,
            0
          ],
          "subsurfaceScale": 0,
          "subsurfaceType": "diffusion",
          "subsurfaceWeight": 0,
          "transmissionAovs": 0,
          "transmissionColor": [
            0,
            0,
            0
          ],
          "transmissionDepth": 0,
          "transmissionDispersion": 0,
          "transmissionExtraRoughness": 0,
          "transmissionScatter": [
            0,
            0,
            0
          ],
          "transmissionScatterAnisotropy": 0,
          "transmissionWeight": 0
        }
      },
      "name": "defaultMaterial",
      "pbrMetallicRoughness": {
        "baseColorFactor": [
          0,
          0,
          0,
          0
        ],
        "metallicFactor": 0,
        "roughnessFactor": 0
      }
    }
  ],
  "meshes": [
    {
      "name": "cherryShape",
      "primitives": [
        {
          "attributes": {
            "NORMAL": 1,
            "POSITION": 2,
            "TEXCOORD_0": 3
          },
          "indices": 0,
          "material": 0,
          "mode": 4
        }
      ]
    },
    {
      "name": "cupShape",
      "primitives": [
        {
          "attributes": {
            "NORMAL": 5,
            "POSITION": 6,
            "TEXCOORD_0": 7
          },
          "indices": 4,
          "material": 0,
          "mode": 4
        }
      ]
    },
    {
      "name": "human1Shape",
      "primitives": [
        {
          "attributes": {
            "NORMAL": 9,
            "POSITION": 10,
            "TEXCOORD_0": 11
          },
          "indices": 8,
          "material": 0,
          "mode": 4
        }
      ]
    },
    {
      "name": "sakuraTree1Shape",
      "primitives": [
        {
          "attributes": {
            "NORMAL": 13,
            "POSITION": 14,
            "TEXCOORD_0": 15
          },
          "indices": 12,
          "material": 1,
          "mode": 4
        }
      ]
    },
    {
      "name": "sakurapetal_cotton1Shape",
      "primitives": [
        {
          "attributes": {
            "NORMAL": 17,
            "POSITION": 18,
            "TEXCOORD_0": 19
          },
          "indices": 16,
          "material": 1,
          "mode": 4
        }
      ]
    }
  ],
  "nodes": [
    {
      "children": [
        1
      ],
      "name": "mountain"
    },
    {
      "children": [
        2,
        3,
        4,
        5,
        6
      ],
      "name": "sakura_mountain"
    },
    {
      "mesh": 0,
      "name": "cherry"
    },
    {
      "mesh": 1,
      "name": "cup"
    },
    {
      "mesh": 2,
      "name": "human1"
    },
    {
      "mesh": 3,
      "name": "sakuraTree1"
    },
    {
      "mesh": 4,
      "name": "sakurapetal_cotton1"
    }
  ],
  "samplers": [
    {
      "magFilter": 9729,
      "minFilter": 9729,
      "wrapS": 10497,
      "wrapT": 10497
    },
    {
      "magFilter": 9728,
      "minFilter": 9728,
      "wrapS": 10497,
      "wrapT": 10497
    }
  ],
  "scene": 0,
  "scenes": [
    {
      "nodes": [
        0
      ]
    }
  ],
  "textures": [
    {
      "extras": {
        "colorSpace": "sRGB"
      },
      "sampler": 0,
      "source": 0
    },
    {
      "extras": {
        "colorSpace": "sRGB"
      },
      "sampler": 0,
      "source": 1
    },
    {
      "extras": {
        "colorSpace": "sRGB"
      },
      "sampler": 1,
      "source": 2
    },
    {
      "extras": {
        "colorSpace": "sRGB"
      },
      "sampler": 0,
      "source": 0
    },
    {
      "extras": {
        "colorSpace": "sRGB"
      },
      "sampler": 0,
      "source": 1
    },
    {
      "extras": {
        "colorSpace": "sRGB"
      },
      "sampler": 0,
      "source": 3
    },
    {
      "extras": {
        "colorSpace": "sRGB"
      },
      "sampler": 0,
      "source": 4
    }
  ]
}
