{
  "accessors": [
    {
      "bufferView": 0,
      "byteOffset": 0,
      "componentType": 5125,
      "count": 4839,
      "max": [
        923
      ],
      "min": [
        0
      ],
      "type": "SCALAR"
    },
    {
      "bufferView": 1,
      "byteOffset": 0,
      "componentType": 5126,
      "count": 924,
      "max": [
        0.99717074632644653,
        0.98137855529785156,
        0.98404914140701294
      ],
      "min": [
        -0.998085618019104,
        -0.99634718894958496,
        -0.99558913707733154
      ],
      "type": "VEC3"
    },
    {
      "bufferView": 2,
      "byteOffset": 0,
      "componentType": 5126,
      "count": 924,
      "max": [
        0.22437262535095215,
        0.55556297302246094,
        0.37080502510070801
      ],
      "min": [
        -0.4005473256111145,
        -0.010154247283935547,
        -0.41408777236938477
      ],
      "type": "VEC3"
    },
    {
      "bufferView": 3,
      "byteOffset": 0,
      "componentType": 5126,
      "count": 924,
      "max": [
        0.89822101593017578,
        0.19959098100662231
      ],
      "min": [
        0.82076901197433472,
        0.10726797580718994
      ],
      "type": "VEC2"
    },
    {
      "bufferView": 4,
      "byteOffset": 0,
      "componentType": 5125,
      "count": 5496,
      "max": [
        1017
      ],
      "min": [
        0
      ],
      "type": "SCALAR"
    },
    {
      "bufferView": 5,
      "byteOffset": 0,
      "componentType": 5126,
      "count": 1018,
      "max": [
        0.99388813972473145,
        0.97512161731719971,
        0.99518245458602905
      ],
      "min": [
        -0.99896031618118286,
        -0.99906438589096069,
        -0.99920326471328735
      ],
      "type": "VEC3"
    },
    {
      "bufferView": 6,
      "byteOffset": 0,
      "componentType": 5126,
      "count": 1018,
      "max": [
        0.30539554357528687,
        0.71460103988647461,
        0.39806294441223145
      ],
      "min": [
        -0.69765490293502808,
        0.26227998733520508,
        -0.21310591697692871
      ],
      "type": "VEC3"
    },
    {
      "bufferView": 7,
      "byteOffset": 0,
      "componentType": 5126,
      "count": 1018,
      "max": [
        0.89791697263717651,
        0.13201701641082764
      ],
      "min": [
        0.80226099491119385,
        0.10104900598526001
      ],
      "type": "VEC2"
    },
    {
      "bufferView": 8,
      "byteOffset": 0,
      "componentType": 5125,
      "count": 6831,
      "max": [
        1221
      ],
      "min": [
        0
      ],
      "type": "SCALAR"
    },
    {
      "bufferView": 9,
      "byteOffset": 0,
      "componentType": 5126,
      "count": 1222,
      "max": [
        0.99975413084030151,
        0.98738950490951538,
        0.99952822923660278
      ],
      "min": [
        -0.99866974353790283,
        -0.99980038404464722,
        -0.99405509233474731
      ],
      "type": "VEC3"
    },
    {
      "bufferView": 10,
      "byteOffset": 0,
      "componentType": 5126,
      "count": 1222,
      "max": [
        -0.075011193752288818,
        0.79781913757324219,
        0.41798090934753418
      ],
      "min": [
        -0.36754268407821655,
        0.38928747177124023,
        0.15438461303710938
      ],
      "type": "VEC3"
    },
    {
      "bufferView": 11,
      "byteOffset": 0,
      "componentType": 5126,
      "count": 1222,
      "max": [
        0.86631697416305542,
        0.16380602121353149
      ],
      "min": [
        0.80051600933074951,
        0.11454397439956665
      ],
      "type": "VEC2"
    },
    {
      "bufferView": 12,
      "byteOffset": 0,
      "componentType": 5125,
      "count": 3708,
      "max": [
        685
      ],
      "min": [
        0
      ],
      "type": "SCALAR"
    },
    {
      "bufferView": 13,
      "byteOffset": 0,
      "componentType": 5126,
      "count": 686,
      "max": [
        0.99433404207229614,
        0.99750924110412598,
        0.86631923913955688
      ],
      "min": [
        -0.99677580595016479,
        -0.99532914161682129,
        -0.99505424499511719
      ],
      "type": "VEC3"
    },
    {
      "bufferView": 14,
      "byteOffset": 0,
      "componentType": 5126,
      "count": 686,
      "max": [
        0.41890591382980347,
        0.47542190551757813,
        -0.10793542861938477
      ],
      "min": [
        -0.11664575338363647,
        0.22242069244384766,
        -0.84210753440856934
      ],
      "type": "VEC3"
    },
    {
      "bufferView": 15,
      "byteOffset": 0,
      "componentType": 5126,
      "count": 686,
      "max": [
        0.89976298809051514,
        0.19893699884414673
      ],
      "min": [
        0.80261200666427612,
        0.10364800691604614
      ],
      "type": "VEC2"
    },
    {
      "bufferView": 16,
      "byteOffset": 0,
      "componentType": 5125,
      "count": 276,
      "max": [
        64
      ],
      "min": [
        0
      ],
      "type": "SCALAR"
    },
    {
      "bufferView": 17,
      "byteOffset": 0,
      "componentType": 5126,
      "count": 65,
      "max": [
        0.87579041719436646,
        0.911732017993927,
        0.37352645397186279
      ],
      "min": [
        -0.60895842313766479,
        0.013009650632739067,
        -0.95133441686630249
      ],
      "type": "VEC3"
    },
    {
      "bufferView": 18,
      "byteOffset": 0,
      "componentType": 5126,
      "count": 65,
      "max": [
        0.22437262535095215,
        0.4923396110534668,
        -0.10241174697875977
      ],
      "min": [
        -0.14640349149703979,
        0.22901439666748047,
        -0.41408777236938477
      ],
      "type": "VEC3"
    },
    {
      "bufferView": 19,
      "byteOffset": 0,
      "componentType": 5126,
      "count": 65,
      "max": [
        0.87404197454452515,
        0.11113697290420532
      ],
      "min": [
        0.85720199346542358,
        0.10101199150085449
      ],
      "type": "VEC2"
    },
    {
      "bufferView": 20,
      "byteOffset": 0,
      "componentType": 5125,
      "count": 732,
      "max": [
        161
      ],
      "min": [
        0
      ],
      "type": "SCALAR"
    },
    {
      "bufferView": 21,
      "byteOffset": 0,
      "componentType": 5126,
      "count": 162,
      "max": [
        0.10981860011816025,
        0.99795186519622803,
        0.03088066354393959
      ],
      "min": [
        -0.10981860011816025,
        -0.99795186519622803,
        -0.03088066354393959
      ],
      "type": "VEC3"
    },
    {
      "bufferView": 22,
      "byteOffset": 0,
      "componentType": 5126,
      "count": 162,
      "max": [
        0.22364437580108643,
        0.51696491241455078,
        0.38503170013427734
      ],
      "min": [
        -1.11464524269104,
        0.0059652328491210938,
        -1.1677098274230957
      ],
      "type": "VEC3"
    },
    {
      "bufferView": 23,
      "byteOffset": 0,
      "componentType": 5126,
      "count": 162,
      "max": [
        0.83475571870803833,
        0.33621829748153687
      ],
      "min": [
        0.78146493434906006,
        0.30437546968460083
      ],
      "type": "VEC2"
    },
    {
      "bufferView": 24,
      "byteOffset": 0,
      "componentType": 5125,
      "count": 396,
      "max": [
        91
      ],
      "min": [
        0
      ],
      "type": "SCALAR"
    },
    {
      "bufferView": 25,
      "byteOffset": 0,
      "componentType": 5126,
      "count": 92,
      "max": [
        0.1236107125878334,
        0.99762684106826782,
        0.023137103766202927
      ],
      "min": [
        -0.1236107125878334,
        -0.99762684106826782,
        -0.023137103766202927
      ],
      "type": "VEC3"
    },
    {
      "bufferView": 26,
      "byteOffset": 0,
      "componentType": 5126,
      "count": 92,
      "max": [
        1.11464524269104,
        0.69067192077636719,
        0.02458643913269043
      ],
      "min": [
        0.045953989028930664,
        0.010977745056152344,
        -0.76076626777648926
      ],
      "type": "VEC3"
    },
    {
      "bufferView": 27,
      "byteOffset": 0,
      "componentType": 5126,
      "count": 92,
      "max": [
        0.85181772708892822,
        0.35696315765380859
      ],
      "min": [
        0.81468206644058228,
        0.33240747451782227
      ],
      "type": "VEC2"
    },
    {
      "bufferView": 28,
      "byteOffset": 0,
      "componentType": 5125,
      "count": 396,
      "max": [
        91
      ],
      "min": [
        0
      ],
      "type": "SCALAR"
    },
    {
      "bufferView": 29,
      "byteOffset": 0,
      "componentType": 5126,
      "count": 92,
      "max": [
        0.12403469532728195,
        0.99766010046005249,
        0.024164687842130661
      ],
      "min": [
        -0.12403469532728195,
        -0.99766010046005249,
        -0.024164687842130661
      ],
      "type": "VEC3"
    },
    {
      "bufferView": 30,
      "byteOffset": 0,
      "componentType": 5126,
      "count": 92,
      "max": [
        1.0916581153869629,
        0.73093605041503906,
        0.75393152236938477
      ],
      "min": [
        0.050584554672241211,
        0.011410713195800781,
        -0.11968326568603516
      ],
      "type": "VEC3"
    },
    {
      "bufferView": 31,
      "byteOffset": 0,
      "componentType": 5126,
      "count": 92,
      "max": [
        0.83076101541519165,
        0.38417321443557739
      ],
      "min": [
        0.80636888742446899,
        0.34495621919631958
      ],
      "type": "VEC2"
    },
    {
      "bufferView": 32,
      "byteOffset": 0,
      "componentType": 5125,
      "count": 396,
      "max": [
        91
      ],
      "min": [
        0
      ],
      "type": "SCALAR"
    },
    {
      "bufferView": 33,
      "byteOffset": 0,
      "componentType": 5126,
      "count": 92,
      "max": [
        0.10715018212795258,
        0.99685680866241455,
        0.032636087387800217
      ],
      "min": [
        -0.10715018212795258,
        -0.99685680866241455,
        -0.032636087387800217
      ],
      "type": "VEC3"
    },
    {
      "bufferView": 34,
      "byteOffset": 0,
      "componentType": 5126,
      "count": 92,
      "max": [
        0.23541110754013062,
        0.54905509948730469,
        1.1677098274230957
      ],
      "min": [
        -0.63535565137863159,
        0.0041666030883789063,
        -0.031528234481811523
      ],
      "type": "VEC3"
    },
    {
      "bufferView": 35,
      "byteOffset": 0,
      "componentType": 5126,
      "count": 92,
      "max": [
        0.81349676847457886,
        0.36120694875717163
      ],
      "min": [
        0.77577269077301025,
        0.33506596088409424
      ],
      "type": "VEC2"
    }
  ],
  "asset": {
    "generator": "glTF-Maya-Exporter ver1.5.4",
    "version": "2.0"
  },
  "bufferViews": [
    {
      "buffer": 0,
      "byteLength": 19356,
      "byteOffset": 0,
      "target": 34963
    },
    {
      "buffer": 0,
      "byteLength": 11088,
      "byteOffset": 19356,
      "target": 34962
    },
    {
      "buffer": 0,
      "byteLength": 11088,
      "byteOffset": 30444,
      "target": 34962
    },
    {
      "buffer": 0,
      "byteLength": 7392,
      "byteOffset": 41532,
      "target": 34962
    },
    {
      "buffer": 0,
      "byteLength": 21984,
      "byteOffset": 48924,
      "target": 34963
    },
    {
      "buffer": 0,
      "byteLength": 12216,
      "byteOffset": 70908,
      "target": 34962
    },
    {
      "buffer": 0,
      "byteLength": 12216,
      "byteOffset": 83124,
      "target": 34962
    },
    {
      "buffer": 0,
      "byteLength": 8144,
      "byteOffset": 95340,
      "target": 34962
    },
    {
      "buffer": 0,
      "byteLength": 27324,
      "byteOffset": 103484,
      "target": 34963
    },
    {
      "buffer": 0,
      "byteLength": 14664,
      "byteOffset": 130808,
      "target": 34962
    },
    {
      "buffer": 0,
      "byteLength": 14664,
      "byteOffset": 145472,
      "target": 34962
    },
    {
      "buffer": 0,
      "byteLength": 9776,
      "byteOffset": 160136,
      "target": 34962
    },
    {
      "buffer": 0,
      "byteLength": 14832,
      "byteOffset": 169912,
      "target": 34963
    },
    {
      "buffer": 0,
      "byteLength": 8232,
      "byteOffset": 184744,
      "target": 34962
    },
    {
      "buffer": 0,
      "byteLength": 8232,
      "byteOffset": 192976,
      "target": 34962
    },
    {
      "buffer": 0,
      "byteLength": 5488,
      "byteOffset": 201208,
      "target": 34962
    },
    {
      "buffer": 0,
      "byteLength": 1104,
      "byteOffset": 206696,
      "target": 34963
    },
    {
      "buffer": 0,
      "byteLength": 780,
      "byteOffset": 207800,
      "target": 34962
    },
    {
      "buffer": 0,
      "byteLength": 780,
      "byteOffset": 208580,
      "target": 34962
    },
    {
      "buffer": 0,
      "byteLength": 520,
      "byteOffset": 209360,
      "target": 34962
    },
    {
      "buffer": 0,
      "byteLength": 2928,
      "byteOffset": 209880,
      "target": 34963
    },
    {
      "buffer": 0,
      "byteLength": 1944,
      "byteOffset": 212808,
      "target": 34962
    },
    {
      "buffer": 0,
      "byteLength": 1944,
      "byteOffset": 214752,
      "target": 34962
    },
    {
      "buffer": 0,
      "byteLength": 1296,
      "byteOffset": 216696,
      "target": 34962
    },
    {
      "buffer": 0,
      "byteLength": 1584,
      "byteOffset": 217992,
      "target": 34963
    },
    {
      "buffer": 0,
      "byteLength": 1104,
      "byteOffset": 219576,
      "target": 34962
    },
    {
      "buffer": 0,
      "byteLength": 1104,
      "byteOffset": 220680,
      "target": 34962
    },
    {
      "buffer": 0,
      "byteLength": 736,
      "byteOffset": 221784,
      "target": 34962
    },
    {
      "buffer": 0,
      "byteLength": 1584,
      "byteOffset": 222520,
      "target": 34963
    },
    {
      "buffer": 0,
      "byteLength": 1104,
      "byteOffset": 224104,
      "target": 34962
    },
    {
      "buffer": 0,
      "byteLength": 1104,
      "byteOffset": 225208,
      "target": 34962
    },
    {
      "buffer": 0,
      "byteLength": 736,
      "byteOffset": 226312,
      "target": 34962
    },
    {
      "buffer": 0,
      "byteLength": 1584,
      "byteOffset": 227048,
      "target": 34963
    },
    {
      "buffer": 0,
      "byteLength": 1104,
      "byteOffset": 228632,
      "target": 34962
    },
    {
      "buffer": 0,
      "byteLength": 1104,
      "byteOffset": 229736,
      "target": 34962
    },
    {
      "buffer": 0,
      "byteLength": 736,
      "byteOffset": 230840,
      "target": 34962
    }
  ],
  "buffers": [
    {
      "byteLength": 231576,
      "uri": "rivermove1.bin"
    }
  ],
  "extensionsUsed": [
    "LTE_UDIM_texture",
    "LTE_PBR_material"
  ],
  "images": [
    {
      "name": "river_AI_BaseColor",
      "uri": ".\/river_AI_BaseColor.jpg"
    },
    {
      "name": "river_AI_Emissive",
      "uri": ".\/river_AI_Emissive.jpg"
    },
    {
      "name": "river_AI_Normal",
      "uri": ".\/river_AI_Normal.jpg"
    },
    {
      "name": "river_AI_Metallic",
      "uri": ".\/river_AI_Metallic.jpg"
    },
    {
      "name": "river_AI_Roughness",
      "uri": ".\/river_AI_Roughness.jpg"
    }
  ],
  "materials": [
    {
      "alphaMode": "BLEND",
      "emissiveFactor": [
        0,
        0,
        0
      ],
      "emissiveTexture": {
        "index": 1
      },
      "extensions": {
        "LTE_PBR_material": {
          "baseColor": [
            0,
            0,
            0
          ],
          "baseColorTexture": {
            "index": 3
          },
          "baseWeight": 1,
          "coatColor": [
            1,
            1,
            1
          ],
          "coatIOR": 1.5,
          "coatNormal": [
            0,
            0,
            0
          ],
          "coatRoughness": 0.10000000149011612,
          "coatWeight": 0,
          "diffuseRoughness": 0,
          "emissionColor": [
            0,
            0,
            0
          ],
          "emissionColorTexture": {
            "index": 4
          },
          "emissionWeight": 0,
          "metalness": 1,
          "metalnessTexture": {
            "index": 5
          },
          "specularAnisotropy": 0,
          "specularColor": [
            1,
            1,
            1
          ],
          "specularIOR": 1.5199999809265137,
          "specularRotation": 0,
          "specularRoughness": 1,
          "specularRoughnessTexture": {
            "index": 6
          },
          "specularWeight": 1,
          "subsurfaceAnisotropy": 0,
          "subsurfaceColor": [
            1,
            1,
            1
          ],
          "subsurfaceRadius": [
            1,
            1,
            1
          ],
          "subsurfaceScale": 1,
          "subsurfaceType": "diffusion",
          "subsurfaceWeight": 0,
          "transmissionAovs": 0,
          "transmissionColor": [
            1,
            1,
            1
          ],
          "transmissionDepth": 0,
          "transmissionDispersion": 0,
          "transmissionExtraRoughness": 0,
          "transmissionScatter": [
            0,
            0,
            0
          ],
          "transmissionScatterAnisotropy": 0,
          "transmissionWeight": 0
        }
      },
      "name": "aiStandardSurface2",
      "normalTexture": {
        "index": 2
      },
      "pbrMetallicRoughness": {
        "baseColorFactor": [
          1,
          1,
          1,
          1
        ],
        "baseColorTexture": {
          "index": 0
        },
        "metallicFactor": 1,
        "roughnessFactor": 1
      }
    }
  ],
  "meshes": [
    {
      "name": "group5|Group2|Group2Shape",
      "primitives": [
        {
          "attributes": {
            "NORMAL": 1,
            "POSITION": 2,
            "TEXCOORD_0": 3
          },
          "indices": 0,
          "material": 0,
          "mode": 4
        }
      ]
    },
    {
      "name": "group5|Group3|Group3Shape",
      "primitives": [
        {
          "attributes": {
            "NORMAL": 5,
            "POSITION": 6,
            "TEXCOORD_0": 7
          },
          "indices": 4,
          "material": 0,
          "mode": 4
        }
      ]
    },
    {
      "name": "group5|Group4|Group4Shape",
      "primitives": [
        {
          "attributes": {
            "NORMAL": 9,
            "POSITION": 10,
            "TEXCOORD_0": 11
          },
          "indices": 8,
          "material": 0,
          "mode": 4
        }
      ]
    },
    {
      "name": "Group5Shape",
      "primitives": [
        {
          "attributes": {
            "NORMAL": 13,
            "POSITION": 14,
            "TEXCOORD_0": 15
          },
          "indices": 12,
          "material": 0,
          "mode": 4
        }
      ]
    },
    {
      "name": "Group6Shape",
      "primitives": [
        {
          "attributes": {
            "NORMAL": 17,
            "POSITION": 18,
            "TEXCOORD_0": 19
          },
          "indices": 16,
          "material": 0,
          "mode": 4
        }
      ]
    },
    {
      "name": "sakuraABShape",
      "primitives": [
        {
          "attributes": {
            "NORMAL": 21,
            "POSITION": 22,
            "TEXCOORD_0": 23
          },
          "indices": 20,
          "material": 0,
          "mode": 4
        }
      ]
    },
    {
      "name": "sakuraAB1Shape",
      "primitives": [
        {
          "attributes": {
            "NORMAL": 25,
            "POSITION": 26,
            "TEXCOORD_0": 27
          },
          "indices": 24,
          "material": 0,
          "mode": 4
        }
      ]
    },
    {
      "name": "sakuraAB2Shape",
      "primitives": [
        {
          "attributes": {
            "NORMAL": 29,
            "POSITION": 30,
            "TEXCOORD_0": 31
          },
          "indices": 28,
          "material": 0,
          "mode": 4
        }
      ]
    },
    {
      "name": "sakuraAB3Shape",
      "primitives": [
        {
          "attributes": {
            "NORMAL": 33,
            "POSITION": 34,
            "TEXCOORD_0": 35
          },
          "indices": 32,
          "material": 0,
          "mode": 4
        }
      ]
    }
  ],
  "nodes": [
    {
      "children": [
        1
      ],
      "name": "rivermove1"
    },
    {
      "children": [
        2,
        8
      ],
      "name": "petalboat",
      "scale": [
        0.011500000022351742,
        0.011500000022351742,
        0.011500000022351742
      ],
      "translation": [
        -0.011193645186722279,
        0.050708293914794922,
        0.041431490331888199
      ]
    },
    {
      "children": [
        3,
        4,
        5,
        6,
        7
      ],
      "name": "group5"
    },
    {
      "mesh": 0,
      "name": "Group2"
    },
    {
      "mesh": 1,
      "name": "Group3"
    },
    {
      "mesh": 2,
      "name": "Group4"
    },
    {
      "mesh": 3,
      "name": "Group5"
    },
    {
      "mesh": 4,
      "name": "Group6"
    },
    {
      "children": [
        9,
        10,
        11
      ],
      "mesh": 5,
      "name": "sakuraAB"
    },
    {
      "mesh": 6,
      "name": "sakuraAB1"
    },
    {
      "mesh": 7,
      "name": "sakuraAB2"
    },
    {
      "mesh": 8,
      "name": "sakuraAB3"
    }
  ],
  "samplers": [
    {
      "magFilter": 9729,
      "minFilter": 9729,
      "wrapS": 10497,
      "wrapT": 10497
    },
    {
      "magFilter": 9728,
      "minFilter": 9728,
      "wrapS": 10497,
      "wrapT": 10497
    }
  ],
  "scene": 0,
  "scenes": [
    {
      "nodes": [
        0
      ]
    }
  ],
  "textures": [
    {
      "extras": {
        "colorSpace": "sRGB"
      },
      "sampler": 0,
      "source": 0
    },
    {
      "extras": {
        "colorSpace": "sRGB"
      },
      "sampler": 0,
      "source": 1
    },
    {
      "extras": {
        "colorSpace": "sRGB"
      },
      "sampler": 1,
      "source": 2
    },
    {
      "extras": {
        "colorSpace": "sRGB"
      },
      "sampler": 0,
      "source": 0
    },
    {
      "extras": {
        "colorSpace": "sRGB"
      },
      "sampler": 0,
      "source": 1
    },
    {
      "extras": {
        "colorSpace": "sRGB"
      },
      "sampler": 0,
      "source": 3
    },
    {
      "extras": {
        "colorSpace": "sRGB"
      },
      "sampler": 0,
      "source": 4
    }
  ]
}
