{
  "accessors": [
    {
      "bufferView": 0,
      "byteOffset": 0,
      "componentType": 5125,
      "count": 354495,
      "max": [
        75320
      ],
      "min": [
        0
      ],
      "type": "SCALAR"
    },
    {
      "bufferView": 1,
      "byteOffset": 0,
      "componentType": 5126,
      "count": 75321,
      "max": [
        1,
        1,
        0.99999064207077026
      ],
      "min": [
        -1,
        -1,
        -0.99995869398117065
      ],
      "type": "VEC3"
    },
    {
      "bufferView": 2,
      "byteOffset": 0,
      "componentType": 5126,
      "count": 75321,
      "max": [
        0.10083137452602386,
        0.12207985669374466,
        0.077791154384613037
      ],
      "min": [
        -0.097706563770771027,
        -0.0035945922136306763,
        -0.076104342937469482
      ],
      "type": "VEC3"
    },
    {
      "bufferView": 3,
      "byteOffset": 0,
      "componentType": 5126,
      "count": 75321,
      "max": [
        0.99973982572555542,
        0.99932163953781128
      ],
      "min": [
        0.0020933747291564941,
        0.00019598007202148438
      ],
      "type": "VEC2"
    },
    {
      "bufferView": 4,
      "byteOffset": 0,
      "componentType": 5125,
      "count": 21384,
      "max": [
        4851
      ],
      "min": [
        0
      ],
      "type": "SCALAR"
    },
    {
      "bufferView": 5,
      "byteOffset": 0,
      "componentType": 5126,
      "count": 4852,
      "max": [
        0.99999719858169556,
        1,
        0.9999963641166687
      ],
      "min": [
        -0.99999994039535522,
        -0.99999773502349854,
        -0.99999725818634033
      ],
      "type": "VEC3"
    },
    {
      "bufferView": 6,
      "byteOffset": 0,
      "componentType": 5126,
      "count": 4852,
      "max": [
        4.596580982208252,
        7.4126577377319336,
        4.6046280860900879
      ],
      "min": [
        -1.5779019594192505,
        5.2991209030151367,
        0.0029414147138595581
      ],
      "type": "VEC3"
    },
    {
      "bufferView": 7,
      "byteOffset": 0,
      "componentType": 5126,
      "count": 4852,
      "max": [
        0.99751859903335571,
        0.99676203727722168
      ],
      "min": [
        0.70072478055953979,
        0.80077385902404785
      ],
      "type": "VEC2"
    },
    {
      "bufferView": 8,
      "byteOffset": 0,
      "componentType": 5125,
      "count": 6792,
      "max": [
        1355
      ],
      "min": [
        0
      ],
      "type": "SCALAR"
    },
    {
      "bufferView": 9,
      "byteOffset": 0,
      "componentType": 5126,
      "count": 1356,
      "max": [
        0.99959111213684082,
        0.40967640280723572,
        0.99991101026535034
      ],
      "min": [
        -0.99985963106155396,
        -0.97190356254577637,
        -0.99988162517547607
      ],
      "type": "VEC3"
    },
    {
      "bufferView": 10,
      "byteOffset": 0,
      "componentType": 5126,
      "count": 1356,
      "max": [
        4.5190458297729492,
        5.3706874847412109,
        4.532374382019043
      ],
      "min": [
        -0.53598660230636597,
        5.0257582664489746,
        0.25237488746643066
      ],
      "type": "VEC3"
    },
    {
      "bufferView": 11,
      "byteOffset": 0,
      "componentType": 5126,
      "count": 1356,
      "max": [
        0.756844162940979,
        0.86878067255020142
      ],
      "min": [
        0.7186431884765625,
        0.80444955825805664
      ],
      "type": "VEC2"
    },
    {
      "bufferView": 12,
      "byteOffset": 0,
      "componentType": 5125,
      "count": 6924,
      "max": [
        1379
      ],
      "min": [
        0
      ],
      "type": "SCALAR"
    },
    {
      "bufferView": 13,
      "byteOffset": 0,
      "componentType": 5126,
      "count": 1380,
      "max": [
        0.99877560138702393,
        0.40967679023742676,
        0.99792402982711792
      ],
      "min": [
        -0.99999958276748657,
        -0.97190356254577637,
        -0.99950534105300903
      ],
      "type": "VEC3"
    },
    {
      "bufferView": 14,
      "byteOffset": 0,
      "componentType": 5126,
      "count": 1380,
      "max": [
        4.3959732055664063,
        5.364417552947998,
        4.480708122253418
      ],
      "min": [
        -1.2436118125915527,
        5.0257582664489746,
        0.81400191783905029
      ],
      "type": "VEC3"
    },
    {
      "bufferView": 15,
      "byteOffset": 0,
      "componentType": 5126,
      "count": 1380,
      "max": [
        0.756844162940979,
        0.86878067255020142
      ],
      "min": [
        0.7186431884765625,
        0.80444955825805664
      ],
      "type": "VEC2"
    },
    {
      "bufferView": 16,
      "byteOffset": 0,
      "componentType": 5126,
      "count": 2,
      "max": [
        10
      ],
      "min": [
        0
      ],
      "type": "SCALAR"
    },
    {
      "bufferView": 17,
      "byteOffset": 0,
      "componentType": 5126,
      "count": 2,
      "max": [
        0,
        0,
        0
      ],
      "min": [
        0,
        0,
        0
      ],
      "type": "VEC3"
    },
    {
      "bufferView": 18,
      "byteOffset": 0,
      "componentType": 5126,
      "count": 2,
      "max": [
        10
      ],
      "min": [
        0
      ],
      "type": "SCALAR"
    },
    {
      "bufferView": 19,
      "byteOffset": 0,
      "componentType": 5126,
      "count": 2,
      "max": [
        0,
        0,
        0,
        1
      ],
      "min": [
        0,
        -0.0087266368791460991,
        0,
        -0.99996191263198853
      ],
      "type": "VEC4"
    },
    {
      "bufferView": 20,
      "byteOffset": 0,
      "componentType": 5126,
      "count": 2,
      "max": [
        10
      ],
      "min": [
        0
      ],
      "type": "SCALAR"
    },
    {
      "bufferView": 21,
      "byteOffset": 0,
      "componentType": 5126,
      "count": 2,
      "max": [
        0.011500000022351742,
        0.011500000022351742,
        0.011500000022351742
      ],
      "min": [
        0.011500000022351742,
        0.011500000022351742,
        0.011500000022351742
      ],
      "type": "VEC3"
    }
  ],
  "animations": [
    {
      "channels": [
        {
          "sampler": 0,
          "target": {
            "node": 2,
            "path": "translation"
          }
        },
        {
          "sampler": 1,
          "target": {
            "node": 2,
            "path": "rotation"
          }
        },
        {
          "sampler": 2,
          "target": {
            "node": 2,
            "path": "scale"
          }
        }
      ],
      "name": "Transform:train",
      "samplers": [
        {
          "input": 16,
          "interpolation": "LINEAR",
          "output": 17
        },
        {
          "input": 18,
          "interpolation": "LINEAR",
          "output": 19
        },
        {
          "input": 20,
          "interpolation": "LINEAR",
          "output": 21
        }
      ]
    }
  ],
  "asset": {
    "generator": "glTF-Maya-Exporter ver1.5.4",
    "version": "2.0"
  },
  "bufferViews": [
    {
      "buffer": 0,
      "byteLength": 1417980,
      "byteOffset": 0,
      "target": 34963
    },
    {
      "buffer": 0,
      "byteLength": 903852,
      "byteOffset": 1417980,
      "target": 34962
    },
    {
      "buffer": 0,
      "byteLength": 903852,
      "byteOffset": 2321832,
      "target": 34962
    },
    {
      "buffer": 0,
      "byteLength": 602568,
      "byteOffset": 3225684,
      "target": 34962
    },
    {
      "buffer": 0,
      "byteLength": 85536,
      "byteOffset": 3828252,
      "target": 34963
    },
    {
      "buffer": 0,
      "byteLength": 58224,
      "byteOffset": 3913788,
      "target": 34962
    },
    {
      "buffer": 0,
      "byteLength": 58224,
      "byteOffset": 3972012,
      "target": 34962
    },
    {
      "buffer": 0,
      "byteLength": 38816,
      "byteOffset": 4030236,
      "target": 34962
    },
    {
      "buffer": 0,
      "byteLength": 27168,
      "byteOffset": 4069052,
      "target": 34963
    },
    {
      "buffer": 0,
      "byteLength": 16272,
      "byteOffset": 4096220,
      "target": 34962
    },
    {
      "buffer": 0,
      "byteLength": 16272,
      "byteOffset": 4112492,
      "target": 34962
    },
    {
      "buffer": 0,
      "byteLength": 10848,
      "byteOffset": 4128764,
      "target": 34962
    },
    {
      "buffer": 0,
      "byteLength": 27696,
      "byteOffset": 4139612,
      "target": 34963
    },
    {
      "buffer": 0,
      "byteLength": 16560,
      "byteOffset": 4167308,
      "target": 34962
    },
    {
      "buffer": 0,
      "byteLength": 16560,
      "byteOffset": 4183868,
      "target": 34962
    },
    {
      "buffer": 0,
      "byteLength": 11040,
      "byteOffset": 4200428,
      "target": 34962
    },
    {
      "buffer": 0,
      "byteLength": 8,
      "byteOffset": 4211468
    },
    {
      "buffer": 0,
      "byteLength": 24,
      "byteOffset": 4211476
    },
    {
      "buffer": 0,
      "byteLength": 8,
      "byteOffset": 4211500
    },
    {
      "buffer": 0,
      "byteLength": 32,
      "byteOffset": 4211508
    },
    {
      "buffer": 0,
      "byteLength": 8,
      "byteOffset": 4211540
    },
    {
      "buffer": 0,
      "byteLength": 24,
      "byteOffset": 4211548
    }
  ],
  "buffers": [
    {
      "byteLength": 4211572,
      "uri": "sakuratrain.bin"
    }
  ],
  "extensionsUsed": [
    "LTE_UDIM_texture",
    "LTE_PBR_material"
  ],
  "images": [
    {
      "name": "train_AI.Basecolor",
      "uri": ".\/train_AI.Basecolor.jpg"
    },
    {
      "name": "train_AI.Emissive",
      "uri": ".\/train_AI.Emissive.jpg"
    },
    {
      "name": "train_AI.Normal",
      "uri": ".\/train_AI.Normal.jpg"
    },
    {
      "name": "train_AI.Roughness",
      "uri": ".\/train_AI.Roughness.jpg"
    },
    {
      "name": "train_AI.Metallic",
      "uri": ".\/train_AI.Metallic.jpg"
    }
  ],
  "materials": [
    {
      "alphaMode": "OPAQUE",
      "emissiveFactor": [
        0,
        0,
        0
      ],
      "emissiveTexture": {
        "index": 1
      },
      "extensions": {
        "LTE_PBR_material": {
          "baseColor": [
            0,
            0,
            0
          ],
          "baseColorTexture": {
            "index": 3
          },
          "baseWeight": 0.80000001192092896,
          "coatColor": [
            1,
            1,
            1
          ],
          "coatIOR": 1.5,
          "coatNormal": [
            0,
            0,
            0
          ],
          "coatRoughness": 0.10000000149011612,
          "coatWeight": 0,
          "diffuseRoughness": 1,
          "diffuseRoughnessTexture": {
            "index": 4
          },
          "emissionColor": [
            0,
            0,
            0
          ],
          "emissionColorTexture": {
            "index": 5
          },
          "emissionWeight": 0,
          "metalness": 1,
          "metalnessTexture": {
            "index": 6
          },
          "specularAnisotropy": 0,
          "specularColor": [
            1,
            1,
            1
          ],
          "specularIOR": 1.5199999809265137,
          "specularRotation": 0,
          "specularRoughness": 1,
          "specularRoughnessTexture": {
            "index": 7
          },
          "specularWeight": 1,
          "subsurfaceAnisotropy": 0,
          "subsurfaceColor": [
            1,
            1,
            1
          ],
          "subsurfaceRadius": [
            1,
            1,
            1
          ],
          "subsurfaceScale": 1,
          "subsurfaceType": "diffusion",
          "subsurfaceWeight": 0,
          "transmissionAovs": 0,
          "transmissionColor": [
            1,
            1,
            1
          ],
          "transmissionDepth": 0,
          "transmissionDispersion": 0,
          "transmissionExtraRoughness": 0,
          "transmissionScatter": [
            0,
            0,
            0
          ],
          "transmissionScatterAnisotropy": 0,
          "transmissionWeight": 0
        }
      },
      "name": "aiStandardSurface1",
      "normalTexture": {
        "index": 2
      },
      "pbrMetallicRoughness": {
        "baseColorFactor": [
          0.80000001192092896,
          0.80000001192092896,
          0.80000001192092896,
          1
        ],
        "baseColorTexture": {
          "index": 0
        },
        "metallicFactor": 1,
        "roughnessFactor": 1
      }
    }
  ],
  "meshes": [
    {
      "name": "sakura_train2Shape",
      "primitives": [
        {
          "attributes": {
            "NORMAL": 1,
            "POSITION": 2,
            "TEXCOORD_0": 3
          },
          "indices": 0,
          "material": 0,
          "mode": 4
        }
      ]
    },
    {
      "name": "trainShape",
      "primitives": [
        {
          "attributes": {
            "NORMAL": 5,
            "POSITION": 6,
            "TEXCOORD_0": 7
          },
          "indices": 4,
          "material": 0,
          "mode": 4
        }
      ]
    },
    {
      "name": "wheelAShape",
      "primitives": [
        {
          "attributes": {
            "NORMAL": 9,
            "POSITION": 10,
            "TEXCOORD_0": 11
          },
          "indices": 8,
          "material": 0,
          "mode": 4
        }
      ]
    },
    {
      "name": "wheelBShape",
      "primitives": [
        {
          "attributes": {
            "NORMAL": 13,
            "POSITION": 14,
            "TEXCOORD_0": 15
          },
          "indices": 12,
          "material": 0,
          "mode": 4
        }
      ]
    }
  ],
  "nodes": [
    {
      "children": [
        1,
        2
      ],
      "name": "sakuratrain"
    },
    {
      "mesh": 0,
      "name": "sakura_train2"
    },
    {
      "children": [
        3,
        4
      ],
      "mesh": 1,
      "name": "train",
      "scale": [
        0.011500000022351742,
        0.011500000022351742,
        0.011500000022351742
      ]
    },
    {
      "mesh": 2,
      "name": "wheelA"
    },
    {
      "mesh": 3,
      "name": "wheelB"
    }
  ],
  "samplers": [
    {
      "magFilter": 9729,
      "minFilter": 9729,
      "wrapS": 10497,
      "wrapT": 10497
    },
    {
      "magFilter": 9728,
      "minFilter": 9728,
      "wrapS": 10497,
      "wrapT": 10497
    }
  ],
  "scene": 0,
  "scenes": [
    {
      "nodes": [
        0
      ]
    }
  ],
  "textures": [
    {
      "extras": {
        "colorSpace": "sRGB"
      },
      "sampler": 0,
      "source": 0
    },
    {
      "extras": {
        "colorSpace": "sRGB"
      },
      "sampler": 0,
      "source": 1
    },
    {
      "extras": {
        "colorSpace": "sRGB"
      },
      "sampler": 1,
      "source": 2
    },
    {
      "extras": {
        "colorSpace": "sRGB"
      },
      "sampler": 0,
      "source": 0
    },
    {
      "extras": {
        "colorSpace": "sRGB"
      },
      "sampler": 0,
      "source": 3
    },
    {
      "extras": {
        "colorSpace": "sRGB"
      },
      "sampler": 0,
      "source": 1
    },
    {
      "extras": {
        "colorSpace": "sRGB"
      },
      "sampler": 0,
      "source": 4
    },
    {
      "extras": {
        "colorSpace": "sRGB"
      },
      "sampler": 0,
      "source": 3
    }
  ]
}
