{
  "accessors": [
    {
      "bufferView": 0,
      "byteOffset": 0,
      "componentType": 5125,
      "count": 166278,
      "max": [
        30831
      ],
      "min": [
        0
      ],
      "type": "SCALAR"
    },
    {
      "bufferView": 1,
      "byteOffset": 0,
      "componentType": 5126,
      "count": 30832,
      "max": [
        0.99999678134918213,
        0.99999809265136719,
        0.99999922513961792
      ],
      "min": [
        -0.99998241662979126,
        -0.99998569488525391,
        -0.99994581937789917
      ],
      "type": "VEC3"
    },
    {
      "bufferView": 2,
      "byteOffset": 0,
      "componentType": 5126,
      "count": 30832,
      "max": [
        0.030614148825407028,
        0.068953491747379303,
        0.053672730922698975
      ],
      "min": [
        -0.052292823791503906,
        0.039072941988706589,
        -0.014592650346457958
      ],
      "type": "VEC3"
    },
    {
      "bufferView": 3,
      "byteOffset": 0,
      "componentType": 5126,
      "count": 30832,
      "max": [
        0.99973982572555542,
        0.69975376129150391
      ],
      "min": [
        0.60108101367950439,
        0.00019598007202148438
      ],
      "type": "VEC2"
    },
    {
      "bufferView": 4,
      "byteOffset": 0,
      "componentType": 5125,
      "count": 20796,
      "max": [
        3791
      ],
      "min": [
        0
      ],
      "type": "SCALAR"
    },
    {
      "bufferView": 5,
      "byteOffset": 0,
      "componentType": 5126,
      "count": 3792,
      "max": [
        0.99975138902664185,
        0.99940252304077148,
        0.99995625019073486
      ],
      "min": [
        -0.99976593255996704,
        -0.99997508525848389,
        -0.99982422590255737
      ],
      "type": "VEC3"
    },
    {
      "bufferView": 6,
      "byteOffset": 0,
      "componentType": 5126,
      "count": 3792,
      "max": [
        0.0029719173908233643,
        0.019909977912902832,
        0.0027848631143569946
      ],
      "min": [
        -0.0031106770038604736,
        -0.0006213746964931488,
        -0.0021184384822845459
      ],
      "type": "VEC3"
    },
    {
      "bufferView": 7,
      "byteOffset": 0,
      "componentType": 5126,
      "count": 3792,
      "max": [
        0.8984379768371582,
        0.098437011241912842
      ],
      "min": [
        0.80156302452087402,
        0.0020729899406433105
      ],
      "type": "VEC2"
    },
    {
      "bufferView": 8,
      "byteOffset": 0,
      "componentType": 5125,
      "count": 118962,
      "max": [
        114699
      ],
      "min": [
        0
      ],
      "type": "SCALAR"
    },
    {
      "bufferView": 9,
      "byteOffset": 0,
      "componentType": 5126,
      "count": 114700,
      "max": [
        1,
        1,
        0.99999994039535522
      ],
      "min": [
        -1,
        -1,
        -0.99999988079071045
      ],
      "type": "VEC3"
    },
    {
      "bufferView": 10,
      "byteOffset": 0,
      "componentType": 5126,
      "count": 114700,
      "max": [
        0.14471530914306641,
        0.32538986206054688,
        0.11149311065673828
      ],
      "min": [
        -0.14687824249267578,
        -0.0024111270904541016,
        -0.058492660522460938
      ],
      "type": "VEC3"
    },
    {
      "bufferView": 11,
      "byteOffset": 0,
      "componentType": 5126,
      "count": 114700,
      "max": [
        0.99974000453948975,
        0.99934905767440796
      ],
      "min": [
        0.0061125298961997032,
        0.0016180276870727539
      ],
      "type": "VEC2"
    },
    {
      "bufferView": 12,
      "byteOffset": 0,
      "componentType": 5126,
      "count": 3,
      "max": [
        12.5
      ],
      "min": [
        0.041666667908430099
      ],
      "type": "SCALAR"
    },
    {
      "bufferView": 13,
      "byteOffset": 0,
      "componentType": 5126,
      "count": 3,
      "max": [
        -0.097480766475200653,
        0,
        0.070504486560821533
      ],
      "min": [
        -0.097480766475200653,
        0,
        0
      ],
      "type": "VEC3"
    },
    {
      "bufferView": 14,
      "byteOffset": 0,
      "componentType": 5126,
      "count": 3,
      "max": [
        12.5
      ],
      "min": [
        0.041666667908430099
      ],
      "type": "SCALAR"
    },
    {
      "bufferView": 15,
      "byteOffset": 0,
      "componentType": 5126,
      "count": 3,
      "max": [
        0,
        0.9640507698059082,
        0,
        1
      ],
      "min": [
        0,
        0,
        0,
        -0.99996918439865112
      ],
      "type": "VEC4"
    },
    {
      "bufferView": 16,
      "byteOffset": 0,
      "componentType": 5126,
      "count": 3,
      "max": [
        12.5
      ],
      "min": [
        0.041666667908430099
      ],
      "type": "SCALAR"
    },
    {
      "bufferView": 17,
      "byteOffset": 0,
      "componentType": 5126,
      "count": 3,
      "max": [
        1,
        1,
        1
      ],
      "min": [
        1,
        1,
        1
      ],
      "type": "VEC3"
    }
  ],
  "animations": [
    {
      "channels": [
        {
          "sampler": 0,
          "target": {
            "node": 2,
            "path": "translation"
          }
        },
        {
          "sampler": 1,
          "target": {
            "node": 2,
            "path": "rotation"
          }
        },
        {
          "sampler": 2,
          "target": {
            "node": 2,
            "path": "scale"
          }
        }
      ],
      "name": "Transform:SelSet_27",
      "samplers": [
        {
          "input": 12,
          "interpolation": "LINEAR",
          "output": 13
        },
        {
          "input": 14,
          "interpolation": "LINEAR",
          "output": 15
        },
        {
          "input": 16,
          "interpolation": "LINEAR",
          "output": 17
        }
      ]
    }
  ],
  "asset": {
    "generator": "glTF-Maya-Exporter ver1.5.4",
    "version": "2.0"
  },
  "bufferViews": [
    {
      "buffer": 0,
      "byteLength": 665112,
      "byteOffset": 0,
      "target": 34963
    },
    {
      "buffer": 0,
      "byteLength": 369984,
      "byteOffset": 665112,
      "target": 34962
    },
    {
      "buffer": 0,
      "byteLength": 369984,
      "byteOffset": 1035096,
      "target": 34962
    },
    {
      "buffer": 0,
      "byteLength": 246656,
      "byteOffset": 1405080,
      "target": 34962
    },
    {
      "buffer": 0,
      "byteLength": 83184,
      "byteOffset": 1651736,
      "target": 34963
    },
    {
      "buffer": 0,
      "byteLength": 45504,
      "byteOffset": 1734920,
      "target": 34962
    },
    {
      "buffer": 0,
      "byteLength": 45504,
      "byteOffset": 1780424,
      "target": 34962
    },
    {
      "buffer": 0,
      "byteLength": 30336,
      "byteOffset": 1825928,
      "target": 34962
    },
    {
      "buffer": 0,
      "byteLength": 475848,
      "byteOffset": 1856264,
      "target": 34963
    },
    {
      "buffer": 0,
      "byteLength": 1376400,
      "byteOffset": 2332112,
      "target": 34962
    },
    {
      "buffer": 0,
      "byteLength": 1376400,
      "byteOffset": 3708512,
      "target": 34962
    },
    {
      "buffer": 0,
      "byteLength": 917600,
      "byteOffset": 5084912,
      "target": 34962
    },
    {
      "buffer": 0,
      "byteLength": 12,
      "byteOffset": 6002512
    },
    {
      "buffer": 0,
      "byteLength": 36,
      "byteOffset": 6002524
    },
    {
      "buffer": 0,
      "byteLength": 12,
      "byteOffset": 6002560
    },
    {
      "buffer": 0,
      "byteLength": 48,
      "byteOffset": 6002572
    },
    {
      "buffer": 0,
      "byteLength": 12,
      "byteOffset": 6002620
    },
    {
      "buffer": 0,
      "byteLength": 36,
      "byteOffset": 6002632
    }
  ],
  "buffers": [
    {
      "byteLength": 6002668,
      "uri": "shop.bin"
    }
  ],
  "extensionsUsed": [
    "LTE_UDIM_texture",
    "LTE_PBR_material"
  ],
  "images": [
    {
      "name": "shop_AI_basecolor",
      "uri": ".\/shop_AI_basecolor.jpg"
    },
    {
      "name": "shop_AI_normal",
      "uri": ".\/shop_AI_normal.jpg"
    },
    {
      "name": "shop_AI_metallic",
      "uri": ".\/shop_AI_metallic.jpg"
    },
    {
      "name": "shop_AI_Roughness",
      "uri": ".\/shop_AI_Roughness.jpg"
    }
  ],
  "materials": [
    {
      "alphaMode": "OPAQUE",
      "emissiveFactor": [
        0,
        0,
        0
      ],
      "extensions": {
        "LTE_PBR_material": {
          "baseColor": [
            0,
            0,
            0
          ],
          "baseColorTexture": {
            "index": 2
          },
          "baseWeight": 1,
          "coatColor": [
            1,
            1,
            1
          ],
          "coatIOR": 1.5,
          "coatNormal": [
            0,
            0,
            0
          ],
          "coatRoughness": 0.10000000149011612,
          "coatWeight": 0,
          "diffuseRoughness": 1,
          "emissionColor": [
            1,
            1,
            1
          ],
          "emissionWeight": 0,
          "metalness": 1,
          "metalnessTexture": {
            "index": 3
          },
          "specularAnisotropy": 0,
          "specularColor": [
            0,
            0,
            0
          ],
          "specularIOR": 1.5199999809265137,
          "specularRotation": 0,
          "specularRoughness": 1,
          "specularRoughnessTexture": {
            "index": 4
          },
          "specularWeight": 1,
          "subsurfaceAnisotropy": 0,
          "subsurfaceColor": [
            1,
            1,
            1
          ],
          "subsurfaceRadius": [
            1,
            1,
            1
          ],
          "subsurfaceScale": 1,
          "subsurfaceType": "diffusion",
          "subsurfaceWeight": 0,
          "transmissionAovs": 0,
          "transmissionColor": [
            0.40259739756584167,
            0.40259739756584167,
            0.40259739756584167
          ],
          "transmissionDepth": 0,
          "transmissionDispersion": 0,
          "transmissionExtraRoughness": 0,
          "transmissionScatter": [
            0,
            0,
            0
          ],
          "transmissionScatterAnisotropy": 0,
          "transmissionWeight": 0
        }
      },
      "name": "aiStandardSurface2",
      "normalTexture": {
        "index": 1
      },
      "pbrMetallicRoughness": {
        "baseColorFactor": [
          1,
          1,
          1,
          1
        ],
        "baseColorTexture": {
          "index": 0
        },
        "metallicFactor": 1,
        "roughnessFactor": 1
      }
    }
  ],
  "meshes": [
    {
      "name": "Human1Shape",
      "primitives": [
        {
          "attributes": {
            "NORMAL": 1,
            "POSITION": 2,
            "TEXCOORD_0": 3
          },
          "indices": 0,
          "material": 0,
          "mode": 4
        }
      ]
    },
    {
      "name": "SelSet_27Shape",
      "primitives": [
        {
          "attributes": {
            "NORMAL": 5,
            "POSITION": 6,
            "TEXCOORD_0": 7
          },
          "indices": 4,
          "material": 0,
          "mode": 4
        }
      ]
    },
    {
      "name": "shop3Shape",
      "primitives": [
        {
          "attributes": {
            "NORMAL": 9,
            "POSITION": 10,
            "TEXCOORD_0": 11
          },
          "indices": 8,
          "material": 0,
          "mode": 4
        }
      ]
    }
  ],
  "nodes": [
    {
      "children": [
        1,
        2,
        3
      ],
      "name": "shop"
    },
    {
      "mesh": 0,
      "name": "Human1"
    },
    {
      "mesh": 1,
      "name": "SelSet_27",
      "rotation": [
        0,
        0.0078529594466090202,
        0,
        -0.99996918439865112
      ],
      "translation": [
        -0.097480766475200653,
        0,
        0
      ]
    },
    {
      "mesh": 2,
      "name": "shop3"
    }
  ],
  "samplers": [
    {
      "magFilter": 9729,
      "minFilter": 9729,
      "wrapS": 10497,
      "wrapT": 10497
    },
    {
      "magFilter": 9728,
      "minFilter": 9728,
      "wrapS": 10497,
      "wrapT": 10497
    }
  ],
  "scene": 0,
  "scenes": [
    {
      "nodes": [
        0
      ]
    }
  ],
  "textures": [
    {
      "extras": {
        "colorSpace": "sRGB"
      },
      "sampler": 0,
      "source": 0
    },
    {
      "extras": {
        "colorSpace": "sRGB"
      },
      "sampler": 1,
      "source": 1
    },
    {
      "extras": {
        "colorSpace": "sRGB"
      },
      "sampler": 0,
      "source": 0
    },
    {
      "extras": {
        "colorSpace": "sRGB"
      },
      "sampler": 0,
      "source": 2
    },
    {
      "extras": {
        "colorSpace": "sRGB"
      },
      "sampler": 0,
      "source": 3
    }
  ]
}
